<svg width="49" height="49" viewBox="0 0 31 32" fill="none" xmlns="http://www.w3.org/2000/svg">
<path d="M13 0H4C2.34315 0 1 1.6582 1 3.7037V18.5185C1 20.564 2.34315 22.2222 4 22.2222H13C14.6569 22.2222 16 20.564 16 18.5185V3.7037C16 1.6582 14.6569 0 13 0Z" fill="#B3B3B3"/>
<path d="M27.2 0H18.8C17.2536 0 16 1.6582 16 3.7037V18.5185C16 20.564 17.2536 22.2222 18.8 22.2222H27.2C28.7464 22.2222 30 20.564 30 18.5185V3.7037C30 1.6582 28.7464 0 27.2 0Z" fill="#B3B3B3"/>
<path fill-rule="evenodd" clip-rule="evenodd" d="M3.08334 3.61108H27.75C29.4529 3.61108 30.8334 5.14492 30.8334 7.03701V27.5926C30.8334 29.4847 29.4529 31.0185 27.75 31.0185H3.08334C1.38046 31.0185 0 29.4847 0 27.5926V7.03701C0 5.14492 1.38046 3.61108 3.08334 3.61108ZM24.6667 20.7407C26.3696 20.7407 27.75 19.2069 27.75 17.3148C27.75 15.4227 26.3696 13.8889 24.6667 13.8889C22.9638 13.8889 21.5834 15.4227 21.5834 17.3148C21.5834 19.2069 22.9638 20.7407 24.6667 20.7407Z" fill="#CCCCCC"/>
</svg>
