<svg width="82" height="84" viewBox="0 0 82 84" fill="none" xmlns="http://www.w3.org/2000/svg">
<path fill-rule="evenodd" clip-rule="evenodd" d="M37.4306 70.0001V59.5001C37.4306 57.5671 38.9541 56.0001 40.8334 56.0001C42.7127 56.0001 44.2362 57.5671 44.2362 59.5001V70.0001H52.7431C53.6828 70.0001 54.4445 70.7836 54.4445 71.7501C54.4445 72.7166 53.6828 73.5001 52.7431 73.5001H28.9237C27.984 73.5001 27.2223 72.7166 27.2223 71.7501C27.2223 70.7836 27.984 70.0001 28.9237 70.0001H37.4306Z" fill="#005B96"/>
<path fill-rule="evenodd" clip-rule="evenodd" d="M10.2086 17.5001H71.4585C73.3378 17.5001 74.8613 19.0671 74.8613 21.0001V56C74.8613 57.933 73.3378 59.5 71.4585 59.5H10.2086C8.32926 59.5 6.80579 57.933 6.80579 56V21.0001C6.80579 19.0671 8.32926 17.5001 10.2086 17.5001ZM15.3127 28.0001C14.3731 28.0001 13.6113 28.7836 13.6113 29.7501C13.6113 30.7166 14.3731 31.5001 15.3127 31.5001H45.9377C46.8773 31.5001 47.6391 30.7166 47.6391 29.7501C47.6391 28.7836 46.8773 28.0001 45.9377 28.0001H15.3127ZM15.3127 35.0001C14.3731 35.0001 13.6113 35.7836 13.6113 36.7501C13.6113 37.7166 14.3731 38.5001 15.3127 38.5001H25.521C26.4607 38.5001 27.2224 37.7166 27.2224 36.7501C27.2224 35.7836 26.4607 35.0001 25.521 35.0001H15.3127Z" fill="#0DB2F2"/>
</svg>
