<svg width="36" height="28" viewBox="0 0 36 28" fill="none" xmlns="http://www.w3.org/2000/svg">
<path d="M32.1559 0H4.14319C2.20932 0 0.641602 1.7419 0.641602 3.89065V23.3439C0.641602 25.4927 2.20932 27.2346 4.14319 27.2346H32.1559C34.0898 27.2346 35.6575 25.4927 35.6575 23.3439V3.89065C35.6575 1.7419 34.0898 0 32.1559 0Z" fill="#0DB2F2"/>
<path d="M35.6575 5.836H0.641602V11.672H35.6575V5.836Z" fill="#005B96"/>
<path d="M30.4051 17.5079H26.9035C25.9366 17.5079 25.1527 18.3788 25.1527 19.4532C25.1527 20.5276 25.9366 21.3986 26.9035 21.3986H30.4051C31.372 21.3986 32.1559 20.5276 32.1559 19.4532C32.1559 18.3788 31.372 17.5079 30.4051 17.5079Z" fill="#005B96"/>
</svg>
