<svg width="49" height="54" viewBox="0 0 49 54" fill="none" xmlns="http://www.w3.org/2000/svg">
<path d="M40.3001 11.1945H8.06015C5.83444 11.1945 4.03015 13.1992 4.03015 15.6722V38.0611C4.03015 40.5341 5.83444 42.5389 8.06015 42.5389H40.3001C42.5258 42.5389 44.3301 40.5341 44.3301 38.0611V15.6722C44.3301 13.1992 42.5258 11.1945 40.3001 11.1945Z" fill="#0DB2F2"/>
<path d="M44.3301 17.9111H4.03015V24.6277H44.3301V17.9111Z" fill="#005B96"/>
<path d="M38.2849 31.3445H34.2549C33.142 31.3445 32.2399 32.3469 32.2399 33.5834C32.2399 34.8199 33.142 35.8223 34.2549 35.8223H38.2849C39.3977 35.8223 40.2999 34.8199 40.2999 33.5834C40.2999 32.3469 39.3977 31.3445 38.2849 31.3445Z" fill="#005B96"/>
</svg>
