<svg width="70" height="73" viewBox="0 0 70 73" fill="none" xmlns="http://www.w3.org/2000/svg">
<path d="M37.9171 57.122V60.2762H40.8337C44.0554 60.2762 46.6671 62.9535 46.6671 66.2561H23.3337C23.3337 62.9535 25.9454 60.2762 29.1671 60.2762H32.0837V57.1213C26.3342 56.4676 21.0245 53.8969 16.8988 49.866L13.8212 53.3222C12.7352 54.5418 10.8904 54.6279 9.70067 53.5146C8.51098 52.4014 8.42691 50.5102 9.51292 49.2906L14.7278 43.4342C15.9298 42.0844 18.0213 42.1461 19.1456 43.5645C23.0019 48.4298 28.7681 51.3064 35.0004 51.3064C46.2762 51.3064 55.4171 41.9359 55.4171 30.3767C55.4171 23.6036 52.26 17.3764 47.0213 13.4573C45.7201 12.4839 45.435 10.6135 46.3845 9.27958C47.3341 7.94568 49.1587 7.65346 50.4599 8.62687C57.1879 13.66 61.2504 21.6732 61.2504 30.3767C61.2504 44.2278 51.0419 55.6347 37.9171 57.122Z" fill="#005B96"/>
<path d="M35 48.3166C44.665 48.3166 52.5 40.2847 52.5 30.3769C52.5 20.4691 44.665 12.4372 35 12.4372C25.335 12.4372 17.5 20.4691 17.5 30.3769C17.5 40.2847 25.335 48.3166 35 48.3166Z" fill="#0DB2F2"/>
</svg>
