<svg width="49" height="49" viewBox="0 0 49 49" fill="none" xmlns="http://www.w3.org/2000/svg">
<path fill-rule="evenodd" clip-rule="evenodd" d="M3.0225 10.075H9.0675C10.7368 10.075 12.09 11.4282 12.09 13.0975V35.2625C12.09 36.9318 10.7368 38.285 9.0675 38.285H3.0225C1.35322 38.285 0 36.9318 0 35.2625V13.0975C0 11.4282 1.35322 10.075 3.0225 10.075ZM37.2775 10.075H45.3375C47.0068 10.075 48.36 11.4282 48.36 13.0975V35.2625C48.36 36.9318 47.0068 38.285 45.3375 38.285H37.2775C35.6082 38.285 34.255 36.9318 34.255 35.2625V13.0975C34.255 11.4282 35.6082 10.075 37.2775 10.075Z" fill="#0DB2F2"/>
<path d="M27.2025 10.075H19.1425C17.4732 10.075 16.12 11.4282 16.12 13.0975V35.2625C16.12 36.9318 17.4732 38.285 19.1425 38.285H27.2025C28.8718 38.285 30.225 36.9318 30.225 35.2625V13.0975C30.225 11.4282 28.8718 10.075 27.2025 10.075Z" fill="#005B96"/>
</svg>
