<svg width="74" height="77" viewBox="0 0 74 77" fill="none" xmlns="http://www.w3.org/2000/svg">
<path d="M15.0317 65.9887C14.293 65.9887 13.5543 65.6858 12.9633 65.08L7.05357 59.0218C5.87163 57.8101 5.87163 55.9927 7.05357 54.781C8.23552 53.5694 10.1562 53.5694 11.1904 54.781L15.0317 58.7189L24.7827 48.7228C25.9647 47.5112 27.7376 47.5112 28.9196 48.7228C30.1015 49.9345 30.1015 51.7519 28.9196 52.9636L17.1001 65.08C16.5091 65.6858 15.7704 65.9887 15.0317 65.9887Z" fill="#005B96"/>
<path fill-rule="evenodd" clip-rule="evenodd" d="M6.16711 37.9051V19.3668C6.16711 14.1298 10.3085 9.8844 15.4171 9.8844H58.5838C63.6924 9.8844 67.8338 14.1298 67.8338 19.3668V47.8141C67.8338 47.8244 67.8338 47.8348 67.8337 47.8451L67.9107 47.8141V62.3089C67.9107 64.0545 66.5302 65.4697 64.8273 65.4697C64.0096 65.4697 63.2253 65.1367 62.6471 64.5439L55.5773 57.2965H40.0332C39.2399 44.9409 29.2123 35.1709 16.9588 35.1709C13.0612 35.1709 9.38876 36.1593 6.16711 37.9051ZM18.5004 22.5276C16.7976 22.5276 15.4171 23.9428 15.4171 25.6884C15.4171 27.4341 16.7976 28.8492 18.5004 28.8492H46.2504C47.9533 28.8492 49.3338 27.4341 49.3338 25.6884C49.3338 23.9428 47.9533 22.5276 46.2504 22.5276H18.5004Z" fill="#0DB2F2"/>
</svg>
